<svg width="77" height="24" viewBox="0 0 77 24" fill="none" xmlns="http://www.w3.org/2000/svg">
<g clip-path="url(#clip0_1_271)">
<path d="M-0.000839233 15.9836C-0.000839233 11.5897 3.09217 8.69699 6.68617 8.69699C8.73365 8.69699 10.3074 9.6722 11.0534 10.6693L11.3856 9.02571H14.3152V22.9306H11.4673L11.0534 21.2322C10.3891 22.202 8.84256 23.2593 6.60448 23.2593C2.90158 23.2758 -0.000839233 20.2132 -0.000839233 15.9836ZM11.2767 15.9836C11.2767 13.3429 9.58859 11.5623 7.29606 11.5623C4.97085 11.5623 3.28821 13.3977 3.28821 15.9836C3.28821 18.5696 4.9763 20.405 7.29606 20.405C9.58859 20.4104 11.2767 18.6299 11.2767 15.9836Z" fill="#4B27DC"/>
<path d="M16.87 1.48117H20.1046V10.8716C20.8234 9.64441 22.3699 8.70208 24.3629 8.70208C27.543 8.70208 29.449 10.7621 29.449 14.3999V22.9412H26.2144V15.0683C26.2144 12.844 25.1362 11.6167 23.3392 11.6167C21.5966 11.6167 20.1046 13.1453 20.1046 16.3996V22.9357H16.87V1.48117Z" fill="#4B27DC"/>
<path d="M37.9537 23.2757C33.6953 23.2757 31.0162 20.2186 31.0162 16.0165C31.0162 11.7321 33.8097 8.70242 37.9265 8.70242C42.4081 8.70242 44.7278 11.902 44.7278 15.6001C44.7278 15.9891 44.7006 16.4876 44.6189 16.8547H34.1963C34.5285 19.3585 36.1022 20.4159 38.1497 20.4159C39.8923 20.4159 40.9432 19.5557 41.5803 18.3285L44.2595 19.5831C43.2358 21.7691 41.1066 23.2757 37.9537 23.2757ZM34.2508 14.5427H41.466C41.2155 12.5101 39.7779 11.3979 37.9265 11.3979C36.2111 11.3979 34.6646 12.3129 34.2508 14.5427Z" fill="#4B27DC"/>
<path d="M46.0346 15.9836C46.0346 11.5897 49.1276 8.69699 52.7216 8.69699C54.7691 8.69699 56.3428 9.6722 57.0889 10.6693L57.421 9.02571H60.3507V22.9306H57.5027L57.0889 21.2322C56.4245 22.202 54.878 23.2593 52.6399 23.2593C48.937 23.2758 46.0346 20.2132 46.0346 15.9836ZM57.3121 15.9836C57.3121 13.3429 55.624 11.5623 53.3315 11.5623C51.0063 11.5623 49.3237 13.3977 49.3237 15.9836C49.3237 18.5696 51.0117 20.405 53.3315 20.405C55.624 20.4104 57.3121 18.6299 57.3121 15.9836Z" fill="#4B27DC"/>
<path d="M68.6227 23.2754C64.8925 23.2754 61.9629 20.3005 61.9629 15.9887C61.9629 11.5126 65.0831 8.70208 68.737 8.70208C70.839 8.70208 72.3582 9.73208 73.0498 10.7621V1.48117H76.2844V22.9412H73.5181L73.1587 21.051C72.4127 22.2125 70.6974 23.2754 68.6227 23.2754ZM65.2247 15.9833C65.2247 18.5418 66.94 20.3772 69.2598 20.3772C71.5523 20.3772 73.2404 18.5966 73.2404 15.9833C73.2404 13.3699 71.5523 11.5894 69.2598 11.5894C66.94 11.5894 65.2247 13.4302 65.2247 15.9833Z" fill="#4B27DC"/>
</g>
<defs>
<clipPath id="clip0_1_271">
<rect width="76.2857" height="24" fill="white"/>
</clipPath>
</defs>
</svg>
